<?xml version="1.0" encoding="UTF-8"?>
<svg xmlns="http://www.w3.org/2000/svg" xmlns:xlink="http://www.w3.org/1999/xlink" width="179pt" height="60.9pt" viewBox="0 0 179 60.9" version="1.1">
<defs>
<clipPath id="clip1">
  <path d="M 25 46 L 38 46 L 38 60.898438 L 25 60.898438 Z M 25 46 "/>
</clipPath>
<clipPath id="clip2">
  <path d="M 40 46 L 54 46 L 54 60.898438 L 40 60.898438 Z M 40 46 "/>
</clipPath>
<clipPath id="clip3">
  <path d="M 61 46 L 76 46 L 76 60.898438 L 61 60.898438 Z M 61 46 "/>
</clipPath>
<clipPath id="clip4">
  <path d="M 77 46 L 88 46 L 88 60.898438 L 77 60.898438 Z M 77 46 "/>
</clipPath>
<clipPath id="clip5">
  <path d="M 90 46 L 102 46 L 102 60.898438 L 90 60.898438 Z M 90 46 "/>
</clipPath>
<clipPath id="clip6">
  <path d="M 103 46 L 115 46 L 115 60.898438 L 103 60.898438 Z M 103 46 "/>
</clipPath>
<clipPath id="clip7">
  <path d="M 123 46 L 135 46 L 135 60.898438 L 123 60.898438 Z M 123 46 "/>
</clipPath>
<clipPath id="clip8">
  <path d="M 135 46 L 149 46 L 149 60.898438 L 135 60.898438 Z M 135 46 "/>
</clipPath>
<clipPath id="clip9">
  <path d="M 56 46 L 60 46 L 60 60.898438 L 56 60.898438 Z M 56 46 "/>
</clipPath>
<clipPath id="clip10">
  <path d="M 117 46 L 120 46 L 120 60.898438 L 117 60.898438 Z M 117 46 "/>
</clipPath>
</defs>
<g id="surface1">
<path style=" stroke:none;fill-rule:nonzero;fill:rgb(88.198853%,16.099548%,14.498901%);fill-opacity:1;" d="M 176.675781 0.867188 L 177.308594 0.867188 C 177.730469 1.042969 177.730469 1.386719 177.730469 1.5625 L 177.730469 1.734375 C 177.730469 1.824219 177.628906 1.996094 177.414063 2.171875 L 177.308594 2.171875 L 177.945313 3.207031 L 177.414063 3.207031 L 176.882813 2.257813 L 176.566406 2.257813 L 176.566406 3.207031 L 176.144531 3.207031 L 176.144531 0.867188 Z M 176.882813 1.90625 C 176.992188 1.90625 177.203125 1.90625 177.308594 1.734375 L 177.308594 1.5625 C 177.308594 1.386719 177.203125 1.300781 177.097656 1.214844 L 176.566406 1.214844 L 176.566406 1.90625 Z M 175.296875 2.082031 C 175.296875 1.128906 176.039063 0.433594 176.882813 0.433594 C 177.835938 0.433594 178.578125 1.128906 178.578125 2.082031 C 178.578125 2.949219 177.835938 3.726563 176.882813 3.726563 C 176.039063 3.726563 175.296875 2.949219 175.296875 2.082031 M 176.882813 4.160156 C 178.050781 4.160156 179.003906 3.207031 179.003906 2.082031 C 179.003906 0.957031 178.050781 0.00390625 176.882813 0.00390625 C 175.71875 0.00390625 174.769531 0.957031 174.769531 2.082031 C 174.769531 3.207031 175.71875 4.160156 176.882813 4.160156 "/>
<path style=" stroke:none;fill-rule:nonzero;fill:rgb(88.598633%,2.398682%,9.799194%);fill-opacity:1;" d="M 156.929688 20.136719 C 153.644531 20.136719 150.890625 17.96875 150.046875 14.9375 L 168.257813 14.9375 L 170.800781 11.039063 L 150.046875 11.039063 C 150.890625 8.003906 153.644531 5.75 156.929688 5.75 L 169.425781 5.75 L 171.964844 1.855469 L 156.609375 1.855469 C 150.46875 1.855469 145.59375 6.792969 145.59375 12.945313 C 145.59375 19.097656 150.46875 24.03125 156.609375 24.03125 L 169.847656 24.03125 L 172.28125 20.136719 Z M 104.722656 24.03125 C 98.582031 24.03125 93.605469 19.097656 93.605469 12.945313 C 93.605469 6.792969 98.582031 1.855469 104.722656 1.855469 L 120.078125 1.855469 L 117.535156 5.75 L 105.042969 5.75 C 101.019531 5.75 97.839844 8.960938 97.839844 12.945313 C 97.839844 16.929688 101.019531 20.136719 105.042969 20.136719 L 120.398438 20.136719 L 117.855469 24.03125 Z M 23.722656 20.136719 C 27.636719 20.136719 30.917969 16.929688 30.917969 12.945313 C 30.917969 8.960938 27.636719 5.75 23.722656 5.75 L 11.332031 5.75 C 7.414063 5.75 4.132813 8.960938 4.132813 12.945313 C 4.132813 16.929688 7.414063 20.136719 11.332031 20.136719 Z M 11.121094 24.03125 C 4.976563 24.03125 0 19.097656 0 12.945313 C 0 6.792969 4.976563 1.855469 11.121094 1.855469 L 23.933594 1.855469 C 30.074219 1.855469 35.050781 6.792969 35.050781 12.945313 C 35.050781 19.097656 30.074219 24.03125 23.933594 24.03125 Z M 56.015625 16.84375 C 60.144531 16.84375 63.535156 13.550781 63.535156 9.390625 C 63.535156 5.234375 60.144531 1.855469 56.015625 1.855469 L 37.378906 1.855469 L 37.378906 24.03125 L 41.613281 24.03125 L 41.613281 5.75 L 55.699219 5.75 C 57.710938 5.75 59.300781 7.398438 59.300781 9.390625 C 59.300781 11.386719 57.710938 12.945313 55.699219 12.945313 L 43.734375 12.945313 L 56.4375 24.03125 L 62.582031 24.03125 L 54.003906 16.84375 Z M 126.644531 20.136719 L 126.644531 1.855469 L 122.300781 1.855469 L 122.300781 21.953125 C 122.300781 22.472656 122.617188 22.992188 122.933594 23.425781 C 123.363281 23.859375 123.996094 24.03125 124.523438 24.03125 L 144.007813 24.03125 L 146.550781 20.136719 Z M 74.335938 16.238281 L 85.769531 16.238281 L 79.734375 6.53125 L 68.722656 24.03125 L 63.636719 24.03125 L 77.085938 2.980469 C 77.617188 2.113281 78.675781 1.683594 79.734375 1.683594 C 80.792969 1.683594 81.746094 2.113281 82.382813 2.980469 L 95.832031 24.03125 L 90.746094 24.03125 L 88.417969 20.136719 L 76.878906 20.136719 "/>
<g clip-path="url(#clip1)" clip-rule="nonzero">
<path style=" stroke:none;fill-rule:nonzero;fill:rgb(9.799194%,8.999634%,10.598755%);fill-opacity:1;" d="M 28.167969 46.683594 L 28.167969 55.085938 C 28.167969 56.5625 28.269531 58.464844 31.132813 58.464844 C 31.660156 58.464844 33.039063 58.464844 33.886719 57.253906 C 34.097656 56.820313 34.308594 56.300781 34.308594 54.914063 L 34.308594 46.683594 L 37.167969 46.683594 L 37.167969 55.257813 C 37.167969 59.417969 33.886719 60.71875 31.132813 60.71875 C 29.757813 60.71875 27.214844 60.371094 25.941406 58.289063 C 25.203125 57.253906 25.203125 56.214844 25.203125 54.914063 L 25.203125 46.683594 "/>
</g>
<g clip-path="url(#clip2)" clip-rule="nonzero">
<path style=" stroke:none;fill-rule:nonzero;fill:rgb(9.799194%,8.999634%,10.598755%);fill-opacity:1;" d="M 40.980469 46.769531 L 45.320313 46.769531 L 50.507813 57.6875 L 50.507813 46.769531 L 53.265625 46.769531 L 53.265625 60.628906 L 49.132813 60.628906 L 43.839844 49.109375 L 43.839844 60.628906 L 40.980469 60.628906 "/>
</g>
<g clip-path="url(#clip3)" clip-rule="nonzero">
<path style=" stroke:none;fill-rule:nonzero;fill:rgb(9.799194%,8.999634%,10.598755%);fill-opacity:1;" d="M 65.230469 46.8125 L 68.828125 57.640625 L 72.425781 46.8125 L 75.394531 46.8125 L 70.3125 60.585938 L 67.03125 60.585938 L 61.949219 46.8125 "/>
</g>
<g clip-path="url(#clip4)" clip-rule="nonzero">
<path style=" stroke:none;fill-rule:nonzero;fill:rgb(9.799194%,8.999634%,10.598755%);fill-opacity:1;" d="M 77.933594 46.769531 L 87.144531 46.769531 L 87.144531 49.023438 L 80.898438 49.023438 L 80.898438 52.316406 L 86.828125 52.316406 L 86.828125 54.566406 L 80.898438 54.566406 L 80.898438 58.292969 L 87.363281 58.292969 L 87.363281 60.628906 L 77.933594 60.628906 "/>
</g>
<g clip-path="url(#clip5)" clip-rule="nonzero">
<path style=" stroke:none;fill-rule:nonzero;fill:rgb(9.799194%,8.999634%,10.598755%);fill-opacity:1;" d="M 93.289063 52.835938 L 95.617188 52.835938 C 95.933594 52.835938 96.675781 52.835938 97.101563 52.402344 C 97.3125 52.316406 97.945313 51.792969 97.945313 50.84375 C 97.945313 49.890625 97.417969 49.453125 97.207031 49.28125 C 96.675781 48.933594 96.148438 48.933594 95.195313 48.933594 L 93.289063 48.933594 Z M 90.324219 46.769531 L 95.617188 46.769531 C 97.101563 46.769531 98.691406 46.769531 99.75 47.722656 C 100.703125 48.5 101.019531 49.453125 101.019531 50.410156 C 101.019531 52.917969 98.796875 53.613281 98.160156 53.789063 C 100.167969 53.960938 100.382813 55.175781 100.597656 56.90625 C 100.8125 58.550781 100.914063 59.242188 101.019531 59.59375 C 101.125 60.195313 101.335938 60.371094 101.441406 60.628906 L 98.160156 60.628906 C 98.054688 59.851563 97.628906 56.390625 97.417969 55.78125 C 97.207031 55 96.46875 55 95.933594 55 L 93.289063 55 L 93.289063 60.628906 L 90.324219 60.628906 "/>
</g>
<g clip-path="url(#clip6)" clip-rule="nonzero">
<path style=" stroke:none;fill-rule:nonzero;fill:rgb(9.799194%,8.999634%,10.598755%);fill-opacity:1;" d="M 106.632813 56.210938 C 106.632813 56.820313 106.527344 58.8125 109.066406 58.8125 C 110.652344 58.8125 111.714844 58.035156 111.714844 56.90625 C 111.714844 55.695313 110.863281 55.433594 109.066406 55 C 105.785156 54.222656 103.984375 53.265625 103.984375 50.84375 C 103.984375 48.589844 105.574219 46.507813 109.488281 46.507813 C 110.863281 46.507813 112.558594 46.859375 113.617188 48.15625 C 114.359375 49.199219 114.359375 50.324219 114.359375 50.753906 L 111.605469 50.753906 C 111.5 50.234375 111.394531 48.675781 109.382813 48.675781 C 107.902344 48.675781 107.054688 49.367188 107.054688 50.496094 C 107.054688 51.792969 108.007813 52.050781 110.019531 52.488281 C 112.453125 53.09375 114.78125 53.789063 114.78125 56.46875 C 114.78125 58.898438 112.773438 60.890625 108.855469 60.890625 C 103.5625 60.890625 103.5625 57.511719 103.5625 56.210938 "/>
</g>
<g clip-path="url(#clip7)" clip-rule="nonzero">
<path style=" stroke:none;fill-rule:nonzero;fill:rgb(9.799194%,8.999634%,10.598755%);fill-opacity:1;" d="M 127.28125 49.109375 L 123.148438 49.109375 L 123.148438 46.769531 L 134.375 46.769531 L 134.375 49.109375 L 130.242188 49.109375 L 130.242188 60.628906 L 127.28125 60.628906 "/>
</g>
<g clip-path="url(#clip8)" clip-rule="nonzero">
<path style=" stroke:none;fill-rule:nonzero;fill:rgb(9.799194%,8.999634%,10.598755%);fill-opacity:1;" d="M 139.246094 46.8125 L 142.101563 53.050781 L 145.066406 46.8125 L 148.035156 46.8125 L 143.371094 55.566406 L 143.371094 60.585938 L 140.519531 60.585938 L 140.519531 55.476563 L 135.859375 46.8125 "/>
</g>
<path style=" stroke:none;fill-rule:nonzero;fill:rgb(9.799194%,8.999634%,10.598755%);fill-opacity:1;" d="M 1.375 36.972656 L 173.875 36.972656 L 173.875 35.625 L 1.375 35.625 Z M 1.375 36.972656 "/>
<g clip-path="url(#clip9)" clip-rule="nonzero">
<path style=" stroke:none;fill-rule:nonzero;fill:rgb(9.799194%,8.999634%,10.598755%);fill-opacity:1;" d="M 56.863281 60.898438 L 59.554688 60.898438 L 59.554688 46.863281 L 56.863281 46.863281 Z M 56.863281 60.898438 "/>
</g>
<g clip-path="url(#clip10)" clip-rule="nonzero">
<path style=" stroke:none;fill-rule:nonzero;fill:rgb(9.799194%,8.999634%,10.598755%);fill-opacity:1;" d="M 117.195313 60.71875 L 119.882813 60.71875 L 119.882813 46.679688 L 117.195313 46.679688 Z M 117.195313 60.71875 "/>
</g>
</g>
</svg>
