<?xml version="1.0" standalone="no"?>
<!DOCTYPE svg PUBLIC "-//W3C//DTD SVG 20010904//EN"
 "http://www.w3.org/TR/2001/REC-SVG-20010904/DTD/svg10.dtd">
<svg version="1.0" xmlns="http://www.w3.org/2000/svg"
 width="1024.000000pt" height="550.000000pt" viewBox="0 0 1024.000000 550.000000"
 preserveAspectRatio="xMidYMid meet">

<g transform="translate(0.000000,550.000000) scale(0.100000,-0.100000)"
fill="#000000" stroke="none">
<path d="M0 2745 l0 -2745 2750 0 2750 0 0 2745 0 2745 -2750 0 -2750 0 0
-2745z m1191 -1199 c196 -42 356 -172 409 -332 19 -56 22 -81 18 -177 -4 -93
-9 -123 -32 -178 -51 -125 -181 -255 -303 -304 -90 -36 -169 -45 -400 -45
l-203 0 0 525 0 525 223 0 c151 0 243 -5 288 -14z m1060 -22 c83 -39 137 -88
169 -151 33 -64 34 -175 3 -245 -28 -62 -96 -134 -160 -170 -29 -17 -53 -32
-53 -35 0 -2 74 -93 165 -201 91 -108 165 -200 165 -204 0 -4 -49 -8 -110 -8
l-110 0 -166 200 c-145 174 -171 200 -196 200 l-28 0 0 -200 0 -201 -97 3 -98
3 -3 523 -2 523 227 -3 228 -3 66 -31z m662 -249 c120 -157 221 -285 226 -285
4 0 106 128 226 285 196 257 221 285 246 285 l29 0 -2 -522 -3 -523 -97 -3
-98 -3 -2 262 -3 263 -135 -162 c-107 -127 -140 -161 -160 -161 -20 -1 -50 29
-160 161 l-135 162 -5 -259 -5 -260 -97 -3 -98 -3 0 526 0 525 28 0 c24 -1 54
-36 245 -285z m1607 271 c104 -22 279 -111 280 -141 0 -5 -30 -34 -66 -64 -56
-45 -69 -52 -83 -42 -9 6 -49 28 -89 48 -64 31 -85 36 -166 41 -69 3 -107 0
-152 -13 -125 -36 -222 -115 -270 -219 -23 -51 -26 -67 -22 -135 6 -93 30
-145 101 -213 120 -115 322 -156 469 -95 65 27 142 110 162 175 l7 22 -135 0
-136 0 0 85 0 85 245 0 245 0 0 -57 c-1 -228 -149 -428 -360 -486 -298 -83
-636 55 -761 309 -29 59 -34 79 -37 164 -7 179 54 304 202 417 152 114 370
160 566 119z"/>
<path d="M880 1036 l0 -356 93 0 c163 0 273 44 368 148 76 83 99 200 63 322
-21 71 -103 153 -199 201 -66 32 -75 34 -197 38 l-128 3 0 -356z"/>
<path d="M1930 1236 l0 -156 93 0 c110 0 169 23 201 80 27 46 26 131 -1 168
-33 45 -69 57 -185 60 l-108 4 0 -156z"/>
<path d="M6370 3428 l0 -2068 961 0 960 0 163 132 c90 73 330 268 534 433 204
165 370 304 368 310 -1 5 -75 43 -164 85 -89 41 -171 83 -182 92 -45 39 -41
65 75 483 31 110 78 282 106 383 28 101 49 185 47 187 -3 3 -97 -15 -403 -80
-421 -89 -452 -94 -487 -84 -19 5 -45 20 -57 33 -22 23 -71 170 -116 344 -10
39 -22 72 -26 72 -6 0 -112 -117 -492 -545 -201 -225 -216 -240 -266 -252 -60
-15 -99 1 -121 50 -30 64 -33 37 79 632 17 88 49 257 71 375 23 118 57 298 76
400 19 102 38 203 41 224 l6 39 -227 -117 c-214 -109 -231 -116 -286 -116 -87
0 -106 21 -235 262 -121 225 -145 270 -185 343 -15 28 -56 104 -91 170 -34 66
-82 156 -106 200 l-43 80 0 -2067z"/>
<path d="M6458 1059 c-43 -34 -78 -67 -78 -73 1 -12 35 -56 44 -56 3 0 24 16
46 36 l40 36 0 -191 0 -192 53 3 52 3 0 245 0 245 -40 3 c-36 2 -48 -4 -117
-59z"/>
<path d="M6790 1102 c-49 -26 -74 -79 -61 -128 6 -20 23 -50 38 -66 l28 -29
-28 -21 c-84 -62 -74 -185 19 -224 40 -17 141 -18 181 -3 61 23 97 84 86 143
-6 28 -57 89 -83 98 -11 4 -5 14 25 41 37 32 40 39 40 85 0 57 -20 86 -72 108
-46 20 -131 18 -173 -4z m138 -74 c33 -27 -7 -103 -50 -96 -30 4 -62 50 -53
77 12 38 66 47 103 19z m19 -245 c29 -44 -8 -93 -70 -93 -69 0 -91 78 -36 124
30 26 31 26 61 9 17 -10 37 -28 45 -40z"/>
<path d="M7270 1109 c0 -7 33 -71 72 -143 l73 -131 5 -105 5 -105 53 -3 52 -3
0 99 0 99 80 146 c44 80 80 149 80 152 0 8 -93 6 -106 -3 -6 -4 -33 -49 -59
-101 l-47 -94 -55 101 -54 102 -50 0 c-30 0 -49 -4 -49 -11z"/>
<path d="M7750 870 l0 -250 140 0 140 0 0 45 0 45 -90 0 -91 0 3 63 3 62 83 3
82 3 0 39 0 39 -82 3 -83 3 -3 53 -3 52 90 0 91 0 0 45 0 45 -140 0 -140 0 0
-250z"/>
<path d="M8260 1117 c0 -2 -38 -111 -85 -243 -47 -131 -85 -242 -85 -246 0 -5
25 -8 54 -8 l55 0 17 60 17 60 92 0 92 0 17 -60 17 -60 55 0 c29 0 54 4 54 9
0 5 -30 92 -66 193 -36 100 -75 209 -86 241 l-20 57 -64 0 c-35 0 -64 -1 -64
-3z m94 -172 c15 -47 29 -92 32 -100 5 -12 -5 -15 -59 -15 l-65 0 31 100 c17
55 31 100 33 100 1 0 14 -38 28 -85z"/>
<path d="M8620 871 l0 -251 50 0 50 0 0 96 0 95 32 -3 c27 -3 37 -13 80 -83
66 -107 66 -107 126 -103 l52 3 -70 105 -70 105 30 23 c59 46 75 112 43 179
-25 53 -81 74 -215 81 l-108 5 0 -252z m215 139 c8 -7 15 -27 15 -46 0 -42
-30 -64 -87 -64 l-43 0 0 66 0 67 50 -5 c27 -3 56 -11 65 -18z"/>
<path d="M9119 1097 c-47 -31 -61 -62 -56 -125 4 -62 28 -92 102 -129 86 -44
106 -62 103 -92 -2 -17 -13 -31 -33 -40 -26 -13 -37 -12 -90 2 -33 8 -68 19
-77 22 -16 6 -18 1 -18 -42 0 -49 1 -50 39 -61 21 -7 68 -12 105 -12 115 0
176 48 176 139 0 76 -17 95 -140 161 -52 28 -66 40 -68 62 -2 20 4 31 23 44
22 15 33 15 73 6 26 -6 54 -13 63 -17 10 -4 20 5 33 31 9 20 13 40 9 44 -19
17 -81 30 -143 30 -53 0 -74 -5 -101 -23z"/>
<path d="M6737 464 c-12 -12 -8 -52 6 -57 22 -8 39 8 35 34 -3 23 -27 37 -41
23z"/>
<path d="M6444 450 c-12 -4 -31 -21 -44 -37 -18 -23 -21 -37 -17 -75 2 -26 10
-55 18 -64 8 -10 48 -33 89 -51 92 -42 110 -58 110 -95 0 -59 -72 -90 -162
-69 -65 15 -68 14 -68 -9 0 -28 36 -40 116 -40 107 0 164 42 164 121 0 16 -6
42 -14 57 -15 29 -26 36 -116 75 -69 30 -90 50 -90 87 0 46 43 73 105 66 28
-3 60 -8 71 -11 16 -5 23 -1 27 15 4 16 -1 23 -19 31 -31 11 -141 11 -170 -1z"/>
<path d="M8077 438 c-33 -21 -36 -26 -24 -42 13 -17 15 -17 48 3 47 29 103 28
134 -4 50 -49 26 -105 -106 -241 -65 -67 -99 -110 -97 -121 3 -16 17 -18 148
-18 143 0 145 0 148 23 3 22 2 22 -114 22 l-117 0 96 99 c102 105 125 149 113
213 -11 58 -46 82 -124 86 -56 3 -73 -1 -105 -20z"/>
<path d="M8447 440 c-41 -33 -62 -102 -62 -205 1 -109 15 -154 61 -195 28 -24
44 -30 80 -30 107 0 149 63 149 225 -1 160 -45 225 -153 225 -34 0 -57 -6 -75
-20z m130 -35 c32 -22 47 -79 47 -176 -1 -64 -6 -96 -20 -125 -34 -69 -109
-72 -148 -5 -27 47 -29 219 -3 268 28 53 80 69 124 38z"/>
<path d="M8795 427 c-44 -44 -58 -101 -53 -212 7 -147 50 -205 152 -205 41 0
53 5 81 33 41 41 55 89 55 192 0 103 -14 151 -55 192 -30 30 -39 33 -90 33
-51 0 -60 -3 -90 -33z m144 -26 c27 -27 41 -83 41 -166 0 -124 -31 -185 -95
-185 -64 0 -95 61 -95 185 0 83 14 139 41 166 25 25 83 25 108 0z"/>
<path d="M9134 446 c-39 -17 -48 -30 -30 -45 10 -8 22 -7 49 4 47 20 107 19
135 -1 19 -13 22 -24 20 -56 -4 -52 -34 -76 -106 -85 -41 -5 -52 -9 -50 -22 2
-12 20 -18 67 -22 54 -5 69 -11 89 -34 28 -33 25 -77 -8 -109 -25 -26 -112
-33 -167 -13 -43 15 -43 15 -43 -9 0 -32 32 -44 116 -44 118 0 169 38 169 127
0 48 -4 58 -28 79 -15 13 -35 24 -44 24 -11 0 -3 12 22 33 34 30 38 38 38 81
0 38 -5 52 -26 74 -24 23 -36 27 -100 29 -46 2 -83 -2 -103 -11z"/>
<path d="M6730 180 l0 -170 25 0 25 0 0 170 0 170 -25 0 -25 0 0 -170z"/>
<path d="M6882 183 c3 -164 4 -168 25 -171 21 -3 21 0 25 123 3 125 3 127 31
151 40 34 98 33 126 -2 19 -24 21 -40 21 -151 0 -123 0 -124 23 -121 21 3 22
7 25 128 3 132 -5 170 -42 195 -31 22 -114 19 -154 -5 l-34 -21 -5 21 c-3 11
-14 20 -24 20 -19 0 -19 -8 -17 -167z"/>
<path d="M7325 340 c-53 -21 -85 -83 -85 -162 0 -106 56 -168 153 -168 58 0
77 8 77 31 0 17 -6 18 -57 13 -52 -6 -61 -4 -84 18 -49 46 -50 165 -2 209 21
20 34 24 83 22 45 -1 60 2 65 14 3 9 0 20 -7 25 -17 10 -117 9 -143 -2z"/>
<path d="M7597 332 c-39 -24 -67 -87 -67 -153 0 -107 59 -169 161 -169 74 0
109 13 109 41 0 17 -4 20 -22 15 -92 -28 -157 -14 -182 39 -31 64 -29 65 100
65 l117 0 -6 52 c-7 57 -30 96 -68 115 -34 18 -109 15 -142 -5z m130 -44 c13
-13 23 -33 23 -50 l0 -28 -86 0 -86 0 6 28 c16 65 97 94 143 50z"/>
</g>
</svg>
