<svg xmlns="http://www.w3.org/2000/svg" width="392.507" height="392.507"><circle fill="#2C3E50" cx="196.254" cy="196.254" r="196.254"/><circle fill="#35495E" cx="196.254" cy="196.254" r="185.507"/><g fill="#FFF"><path d="M168.175 114.264c-1.78 0-3.292-.623-4.538-1.869-1.246-1.246-1.868-2.751-1.868-4.517V93.272c0-1.779.626-3.292 1.879-4.538 1.253-1.246 2.762-1.869 4.527-1.869 1.779 0 3.289.627 4.527 1.879 1.239 1.253 1.858 2.762 1.858 4.527v3.054h-4.186v-3.139c0-.641-.228-1.188-.683-1.644s-1.004-.684-1.645-.684-1.185.228-1.633.684a2.257 2.257 0 00-.673 1.644v14.649c0 .641.224 1.185.673 1.633.448.449.993.673 1.633.673s1.189-.224 1.645-.673c.456-.448.683-.993.683-1.633v-3.694h4.186v3.737c0 1.78-.626 3.289-1.879 4.527-1.253 1.239-2.755 1.859-4.506 1.859zM181.905 113.922h-4.036V87.165h4.036v26.757zM198.625 107.26c.029 1.865-.455 3.459-1.452 4.783-.655.897-1.58 1.531-2.776 1.901-.641.199-1.388.299-2.242.299-1.58 0-2.89-.392-3.929-1.174-.869-.641-1.556-1.513-2.061-2.616-.506-1.103-.801-2.367-.886-3.791l3.844-.277c.171 1.56.583 2.69 1.238 3.391.484.53 1.039.78 1.666.751.882-.028 1.587-.463 2.114-1.304.271-.413.406-1.004.406-1.774 0-1.111-.505-2.216-1.516-3.313l-3.587-3.398c-1.338-1.296-2.285-2.458-2.84-3.484-.598-1.154-.897-2.408-.897-3.762 0-2.437.819-4.282 2.456-5.536 1.011-.755 2.264-1.133 3.758-1.133 1.438 0 2.669.32 3.694.961.797.499 1.441 1.196 1.932 2.093.492.897.787 1.929.887 3.096l-3.865.705c-.114-1.096-.427-1.95-.939-2.562-.371-.441-.904-.662-1.602-.662-.741 0-1.303.328-1.687.982-.313.527-.47 1.182-.47 1.965 0 1.225.527 2.47 1.581 3.737.398.484.996 1.054 1.793 1.708.94.783 1.559 1.331 1.858 1.644.997.997 1.765 1.979 2.306 2.947.256.456.463.875.619 1.26.384.954.583 1.808.597 2.563zM208.319 114.264c-1.779 0-3.292-.623-4.537-1.869-1.246-1.246-1.869-2.751-1.869-4.517V93.272c0-1.779.627-3.292 1.88-4.538 1.252-1.246 2.762-1.869 4.526-1.869 1.78 0 3.289.627 4.527 1.879 1.238 1.253 1.858 2.762 1.858 4.527v3.054h-4.186v-3.139c0-.641-.229-1.188-.684-1.644-.456-.456-1.004-.684-1.645-.684s-1.185.228-1.634.684a2.26 2.26 0 00-.672 1.644v14.649c0 .641.224 1.185.672 1.633.449.449.993.673 1.634.673s1.188-.224 1.645-.673c.455-.448.684-.993.684-1.633v-3.694h4.186v3.737c0 1.78-.627 3.289-1.88 4.527-1.252 1.239-2.753 1.859-4.505 1.859zM224.336 86.823c1.779 0 3.291.626 4.537 1.879 1.246 1.253 1.869 2.762 1.869 4.527v14.606c0 1.78-.627 3.292-1.88 4.538-1.253 1.246-2.762 1.869-4.526 1.869-1.78 0-3.289-.626-4.527-1.879-1.239-1.252-1.858-2.762-1.858-4.527V93.23c0-1.779.627-3.292 1.88-4.538 1.251-1.245 2.753-1.869 4.505-1.869zm2.199 6.321c0-.641-.225-1.185-.673-1.634-.448-.448-.993-.672-1.634-.672s-1.188.224-1.645.672a2.21 2.21 0 00-.683 1.634v14.649c0 .641.228 1.186.683 1.634.456.448 1.004.673 1.645.673s1.186-.225 1.634-.673.673-.993.673-1.634V93.144zM143.468 150.344c-1.78 0-3.292-.623-4.538-1.869-1.246-1.246-1.868-2.751-1.868-4.517v-14.606c0-1.779.626-3.292 1.879-4.538 1.253-1.246 2.762-1.869 4.527-1.869 1.779 0 3.289.627 4.527 1.879 1.239 1.253 1.858 2.762 1.858 4.527v3.054h-4.186v-3.139c0-.641-.228-1.188-.683-1.644s-1.004-.684-1.645-.684-1.185.228-1.633.684a2.257 2.257 0 00-.673 1.644v14.649c0 .641.224 1.185.673 1.633.448.449.993.673 1.633.673s1.189-.224 1.645-.673c.456-.448.683-.993.683-1.633v-3.694h4.186v3.737c0 1.78-.626 3.289-1.879 4.527-1.253 1.24-2.755 1.859-4.506 1.859zM153.162 150.003v-26.778h11.489v4.057h-7.453v7.303h5.446v4.058h-5.446v7.303h7.453v4.057h-11.489zM173.79 123.245c2.25 0 3.901.62 4.955 1.858.925 1.082 1.388 2.591 1.388 4.527v3.886c0 1.894-.719 3.495-2.157 4.805l2.989 11.681H176.6l-2.447-10.079h-2.691v10.079h-4.036v-26.757h6.364zm2.413 6.45c0-1.551-.769-2.328-2.306-2.328h-2.435v8.563h2.435a2.21 2.21 0 001.634-.683 2.262 2.262 0 00.672-1.645v-3.907zM187.393 127.303h-4.292v-4.058H195.7v4.058h-4.271v22.7h-4.036v-22.7zM202.981 150.003h-4.036v-26.757h4.036v26.757zM210.626 150.003h-4.036v-26.778h11.489v4.057h-7.453v7.303h5.445v4.058h-5.445v11.36zM224.89 150.003h-4.036v-26.757h4.036v26.757zM228.5 150.003v-26.778h11.489v4.057h-7.453v7.303h5.445v4.058h-5.445v7.303h7.453v4.057H228.5zM255.449 143.596c0 1.765-.619 3.274-1.857 4.527-1.238 1.253-2.733 1.879-4.484 1.879h-6.343v-26.778h6.343c1.765 0 3.264.626 4.495 1.879 1.231 1.253 1.847 2.755 1.847 4.506v13.987zm-8.648 2.414h2.435c.641 0 1.182-.231 1.623-.694a2.289 2.289 0 00.662-1.633v-14.009c0-.641-.225-1.188-.673-1.644s-.986-.684-1.612-.684h-2.435v18.664z"/></g><path fill="#FFF" d="M73.571 161.781h245.365v2H73.571zM103.646 247.219h185.215v2H103.646z"/><g fill="#FFF"><path d="M113.227 239.029c-2.669 0-4.918-.914-6.746-2.743-1.829-1.827-2.743-4.077-2.743-6.746v-47.444c0-2.619.914-4.843 2.743-6.672 1.828-1.877 4.077-2.817 6.746-2.817h28.466v9.489h-28.466v47.444h28.466v9.489h-28.466zM160.671 239.029c-2.669 0-4.918-.914-6.746-2.743-1.829-1.827-2.743-4.077-2.743-6.746v-47.444c0-2.619.914-4.843 2.743-6.672 1.828-1.877 4.077-2.817 6.746-2.817h28.466v9.489h-28.466v47.444h28.466v9.489h-28.466zM198.627 239.029v-66.422h9.488l23.723 47.444v-47.444h9.488v66.422h-9.488l-23.723-47.444v47.444h-9.488zM250.815 239.029v-66.422h28.467c2.619 0 4.843.939 6.672 2.817 1.878 1.829 2.816 4.053 2.816 6.672v18.978c0 2.669-.938 4.918-2.816 6.746-1.829 1.829-4.053 2.742-6.672 2.742h-18.978v28.467h-9.489zm28.467-37.955v-18.978h-18.978v18.978h18.978z"/></g><g fill="#FFF"><path d="M161.979 275.479c.021 1.4-.342 2.599-1.091 3.593-.492.674-1.187 1.15-2.085 1.428-.481.15-1.043.225-1.685.225-1.187 0-2.171-.294-2.952-.882-.653-.481-1.169-1.137-1.548-1.966-.38-.828-.602-1.777-.666-2.847l2.888-.209c.128 1.172.438 2.021.93 2.548.364.397.781.586 1.251.564.663-.021 1.192-.348 1.588-.979.203-.311.305-.755.305-1.333 0-.835-.38-1.664-1.139-2.488l-2.695-2.554c-1.005-.974-1.716-1.847-2.133-2.617a6.054 6.054 0 01-.674-2.826c0-1.83.615-3.217 1.845-4.158.759-.567 1.701-.852 2.824-.852 1.08 0 2.005.241 2.775.722.599.375 1.083.898 1.452 1.572s.591 1.45.666 2.326l-2.904.529c-.086-.823-.321-1.465-.706-1.925-.278-.331-.679-.497-1.203-.497-.556 0-.979.246-1.268.738-.235.396-.353.888-.353 1.476 0 .92.396 1.855 1.187 2.808.299.363.749.791 1.348 1.283.706.588 1.171 1 1.396 1.235.749.749 1.326 1.486 1.733 2.214.192.343.347.658.465.946.289.717.439 1.359.449 1.926zM164.498 280.484v-20.117h8.631v3.048h-5.599v5.486h4.091v3.048h-4.091v5.487h5.599v3.048h-8.631zM180.027 280.741c-1.337 0-2.473-.468-3.409-1.404-.936-.936-1.403-2.066-1.403-3.393V264.97c0-1.337.47-2.473 1.412-3.409.941-.936 2.075-1.403 3.401-1.403 1.337 0 2.471.471 3.401 1.412.93.941 1.396 2.075 1.396 3.4v2.295h-3.145v-2.358c0-.481-.171-.894-.513-1.235-.342-.343-.754-.514-1.235-.514s-.89.171-1.227.514a1.696 1.696 0 00-.505 1.235v11.005c0 .481.168.891.505 1.228s.746.505 1.227.505.893-.168 1.235-.505.513-.746.513-1.228v-2.775h3.145v2.808c0 1.337-.471 2.471-1.412 3.401-.943.929-2.071 1.395-3.386 1.395zM192.091 280.709c-1.337 0-2.47-.465-3.401-1.396s-1.396-2.059-1.396-3.385v-15.546h2.968v15.514c0 .48.171.89.513 1.227s.754.506 1.235.506.891-.169 1.228-.506.505-.746.505-1.227v-15.514h3.16v15.546c0 1.347-.471 2.48-1.412 3.4-.94.921-2.074 1.381-3.4 1.381zM204.378 260.383c1.69 0 2.931.465 3.723 1.396.694.813 1.042 1.947 1.042 3.401v2.92c0 1.422-.54 2.626-1.62 3.609l2.246 8.775h-3.279l-1.838-7.572h-2.021v7.572h-3.032v-20.102h4.779zm1.814 4.844c0-1.165-.578-1.748-1.733-1.748h-1.828v6.433h1.828c.481 0 .891-.171 1.228-.514.337-.342.506-.754.506-1.235v-2.936zM215.4 280.484h-3.032v-20.102h3.032v20.102zM221.063 263.43h-3.225v-3.048h9.465v3.048h-3.208v17.054h-3.032V263.43zM233.448 272.061l-4.059-11.694h3.337l2.246 7.219 2.229-7.219h3.354l-4.075 11.694v8.423h-3.032v-8.423z"/></g><g fill="#FFF"><path d="M278.254 284.92s79-64.333 69-179c0 0 9.866 10.631 12.333 23 2.374 11.899 3 95.334-81.333 156z"/><path d="M255.252 316.92s96.335-42.667 112.668-158c0 0 6.819 12.333 6.667 26-.135 12.133-22.335 104-119.335 132zM305.587 230.254s43-64.333 11.667-150c0 0 8.54 4.234 13.784 14.961 5.329 10.9 20.216 67.565-25.451 135.039zM114.923 284.92s-79-64.333-69-179c0 0-9.866 10.631-12.333 23-2.374 11.899-3 95.334 81.333 156z"/><path d="M137.255 316.92s-95.665-42.667-111.999-158c0 0-6.819 12.333-6.667 26 .136 12.133 21.666 104 118.666 132zM87.59 230.254s-43-64.333-11.667-150c0 0-8.54 4.234-13.784 14.961-5.329 10.9-20.216 67.565 25.451 135.039z"/></g></svg>