<?xml version="1.0" standalone="no"?>
<!DOCTYPE svg PUBLIC "-//W3C//DTD SVG 20010904//EN"
 "http://www.w3.org/TR/2001/REC-SVG-20010904/DTD/svg10.dtd">
<svg version="1.0" xmlns="http://www.w3.org/2000/svg"
 width="800.000000pt" height="210.000000pt" viewBox="0 0 800.000000 210.000000"
 preserveAspectRatio="xMidYMid meet">

<g transform="translate(0.000000,210.000000) scale(0.100000,-0.100000)"
fill="#000000" stroke="none">
<path d="M105 2002 c-7 -19 -6 -928 2 -1435 l6 -427 174 0 173 0 0 218 1 217
118 142 c72 85 115 144 108 147 -9 5 -9 8 1 12 6 3 9 10 6 16 -4 6 -9 6 -14
-3 -10 -15 -20 -6 -65 56 -27 36 -73 92 -128 153 -17 20 -18 25 -6 33 10 6 10
9 2 9 -10 0 -13 56 -13 247 0 147 4 243 9 238 5 -6 11 -19 13 -30 2 -13 6 -16
11 -8 4 6 -4 24 -18 41 -24 28 -25 34 -27 207 l-3 177 -172 2 c-136 1 -174 -2
-178 -12z"/>
<path d="M2105 2011 c-3 -2 -5 -193 -5 -423 l0 -419 83 3 82 3 5 120 5 121 45
52 c25 29 48 52 52 52 4 0 60 -79 124 -175 l117 -175 95 0 c81 0 93 2 88 15
-3 9 -63 100 -133 203 -71 103 -140 205 -155 227 l-27 39 47 56 c26 30 93 108
149 173 57 65 103 121 103 125 0 5 -42 6 -92 4 -109 -4 -80 18 -283 -221
l-130 -154 -3 187 -2 186 -53 1 c-28 0 -65 2 -80 3 -15 1 -30 0 -32 -3z"/>
<path d="M1120 1918 c-41 -50 -155 -188 -252 -306 -98 -118 -178 -218 -178
-222 0 -9 115 -153 177 -223 25 -28 32 -44 28 -60 -5 -17 -4 -19 4 -7 7 10 11
11 11 3 0 -7 5 -13 11 -13 8 0 8 4 0 14 -9 11 23 56 166 228 98 118 262 317
366 441 103 125 187 229 187 232 0 3 -100 5 -222 5 l-223 0 -75 -92z"/>
<path d="M4720 1940 l0 -70 75 0 75 0 0 70 0 70 -75 0 -75 0 0 -70z"/>
<path d="M6355 1958 c-2 -7 -6 -47 -7 -88 l-3 -75 -40 0 -40 0 -3 -62 -3 -63
46 0 45 0 0 -182 c1 -206 7 -250 45 -287 24 -24 33 -26 130 -29 l105 -4 0 66
0 66 -44 0 c-80 0 -76 -9 -76 191 l0 179 70 0 71 0 -3 63 -3 62 -65 0 -65 1
-5 84 -5 85 -73 3 c-52 2 -74 -1 -77 -10z"/>
<path d="M2970 1781 c-112 -40 -180 -153 -180 -300 0 -134 43 -223 133 -275
87 -51 231 -52 327 -3 50 25 110 104 110 143 0 23 -3 24 -70 24 -67 0 -71 -1
-103 -36 -81 -88 -237 -33 -237 83 l0 33 213 2 212 3 -3 65 c-5 112 -61 208
-147 253 -58 30 -182 34 -255 8z m174 -115 c39 -16 66 -51 66 -83 0 -23 -1
-23 -130 -23 -71 0 -130 2 -130 5 0 3 6 20 14 38 27 65 108 93 180 63z"/>
<path d="M3467 1794 c-4 -4 -7 -146 -7 -316 l0 -308 74 0 75 0 3 203 c3 223
10 252 68 282 33 17 102 20 131 5 43 -24 49 -57 49 -280 l0 -210 75 0 76 0 -3
253 -3 254 -27 40 c-33 50 -85 76 -165 81 -65 4 -152 -17 -173 -44 -18 -21
-28 -17 -32 14 -3 26 -5 27 -68 30 -36 2 -69 0 -73 -4z"/>
<path d="M4236 1780 c-97 -38 -144 -115 -127 -207 17 -91 80 -130 251 -153 91
-13 120 -30 120 -70 0 -35 -27 -55 -85 -64 -63 -10 -127 13 -145 51 -15 32
-16 33 -87 33 -69 0 -73 -1 -73 -22 1 -60 62 -139 125 -163 79 -29 253 -22
324 14 105 54 132 204 51 282 -40 38 -95 57 -224 79 -90 15 -106 24 -106 60 0
40 38 64 101 64 58 0 97 -19 105 -51 6 -21 11 -23 75 -23 84 0 91 10 58 77
-26 51 -70 87 -128 103 -60 16 -180 11 -235 -10z"/>
<path d="M4720 1483 l0 -313 75 0 75 0 0 313 0 314 -75 -1 -75 -1 0 -312z"/>
<path d="M4986 1781 c-3 -9 -4 -149 -2 -311 l3 -295 74 0 74 0 5 210 c4 179 8
214 23 236 37 54 134 68 184 25 l28 -24 5 -224 5 -223 73 -3 72 -3 0 246 c0
270 -4 291 -59 338 -73 61 -218 64 -303 5 -34 -24 -36 -23 -40 10 -3 26 -5 27
-70 28 -55 2 -68 -1 -72 -15z"/>
<path d="M5795 1788 c-95 -34 -156 -115 -174 -230 -25 -156 31 -284 149 -337
75 -34 199 -22 249 23 27 25 31 20 31 -39 0 -102 -35 -135 -144 -135 -68 0
-108 20 -121 60 -6 18 -15 20 -82 20 l-76 0 6 -36 c12 -73 74 -133 161 -155
26 -6 89 -10 144 -7 120 4 180 30 227 97 l30 43 3 346 c2 234 -1 347 -8 352
-6 3 -38 5 -73 4 -58 -2 -62 -4 -65 -28 l-3 -25 -41 27 c-34 22 -54 27 -112
29 -39 1 -84 -3 -101 -9z m192 -133 c83 -55 82 -266 -1 -320 -69 -45 -155 -21
-193 55 -40 78 -24 214 30 258 41 34 118 37 164 7z"/>
<path d="M6866 1780 c-63 -25 -118 -79 -148 -144 -18 -42 -22 -69 -23 -151 0
-93 2 -105 33 -167 51 -104 127 -149 257 -150 135 -1 211 41 265 146 33 66 35
74 35 170 0 117 -20 175 -83 239 -72 74 -226 100 -336 57z m200 -125 c40 -26
64 -89 64 -173 0 -81 -15 -125 -55 -162 -22 -21 -37 -25 -85 -25 -66 0 -100
23 -126 84 -23 54 -18 168 9 221 38 76 124 100 193 55z"/>
<path d="M7374 1785 c-3 -6 -3 -145 -2 -310 l3 -300 75 0 75 0 5 210 c3 144 9
217 18 232 31 56 139 72 189 29 l28 -24 5 -224 5 -223 73 -3 72 -3 0 243 c0
281 -6 305 -81 355 -72 47 -206 44 -281 -8 -35 -25 -38 -24 -38 11 l0 31 -71
-3 c-39 -2 -73 -8 -75 -13z"/>
<path d="M571 1515 c13 -23 49 -67 49 -59 0 5 -13 23 -28 39 -15 17 -24 26
-21 20z"/>
<path d="M638 1417 c6 -7 10 -22 8 -33 -2 -10 -1 -13 1 -6 3 8 11 11 18 8 9
-3 12 0 8 10 -3 7 -9 14 -15 14 -5 0 -6 5 -3 10 3 6 -1 10 -11 10 -12 0 -14
-3 -6 -13z"/>
<path d="M900 1075 c0 -8 29 -12 39 -5 9 5 4 8 -13 8 -14 0 -26 -2 -26 -3z"/>
<path d="M972 1010 c-7 -11 -8 -20 -3 -20 9 0 24 30 18 36 -1 2 -8 -6 -15 -16z"/>
<path d="M2155 960 c3 -5 13 -10 21 -10 8 0 14 5 14 10 0 6 -9 10 -21 10 -11
0 -17 -4 -14 -10z"/>
<path d="M2725 960 c3 -5 11 -10 16 -10 6 0 7 5 4 10 -3 6 -11 10 -16 10 -6 0
-7 -4 -4 -10z"/>
<path d="M4192 950 c0 -14 2 -19 5 -12 2 6 2 18 0 25 -3 6 -5 1 -5 -13z"/>
<path d="M4864 958 c-3 -4 4 -8 15 -8 12 0 21 -4 21 -10 0 -5 4 -10 9 -10 5 0
8 8 7 17 -3 17 -43 26 -52 11z"/>
<path d="M1040 953 c0 -5 12 -20 28 -34 l27 -24 -25 30 c-14 17 -26 32 -27 34
-2 2 -3 0 -3 -6z"/>
<path d="M2111 944 c0 -11 3 -14 6 -6 3 7 2 16 -1 19 -3 4 -6 -2 -5 -13z"/>
<path d="M2728 933 c6 -2 18 -2 25 0 6 3 1 5 -13 5 -14 0 -19 -2 -12 -5z"/>
<path d="M4218 933 c7 -3 16 -2 19 1 4 3 -2 6 -13 5 -11 0 -14 -3 -6 -6z"/>
<path d="M2117 885 c7 -49 13 -58 13 -19 0 16 -5 36 -10 44 -6 10 -7 2 -3 -25z"/>
<path d="M4481 904 c0 -11 3 -14 6 -6 3 7 2 16 -1 19 -3 4 -6 -2 -5 -13z"/>
<path d="M4944 825 c0 -49 1 -71 3 -48 2 23 2 64 0 90 -2 26 -3 8 -3 -42z"/>
<path d="M2663 820 c0 -47 2 -66 4 -42 2 23 2 61 0 85 -2 23 -4 4 -4 -43z"/>
<path d="M1090 880 c0 -5 5 -10 11 -10 5 0 7 5 4 10 -3 6 -8 10 -11 10 -2 0
-4 -4 -4 -10z"/>
<path d="M710 845 c0 -5 5 -17 10 -25 5 -8 10 -10 10 -5 0 6 -5 17 -10 25 -5
8 -10 11 -10 5z"/>
<path d="M1145 820 c3 -5 8 -10 11 -10 2 0 4 5 4 10 0 6 -5 10 -11 10 -5 0 -7
-4 -4 -10z"/>
<path d="M740 808 c0 -5 5 -6 12 -2 8 5 9 2 4 -11 -7 -18 -6 -18 14 0 11 10
20 19 20 19 0 1 -11 2 -25 2 -14 1 -25 -2 -25 -8z"/>
<path d="M4568 780 c-2 -16 1 -31 7 -33 7 -3 9 7 7 29 -5 42 -8 43 -14 4z"/>
<path d="M1170 785 c7 -8 17 -15 22 -15 5 0 3 7 -6 15 -8 8 -18 15 -22 15 -3
0 -1 -7 6 -15z"/>
<path d="M1140 769 c0 -5 5 -7 10 -4 6 3 10 8 10 11 0 2 -4 4 -10 4 -5 0 -10
-5 -10 -11z"/>
<path d="M1160 749 c0 -5 5 -7 10 -4 6 3 10 8 10 11 0 2 -4 4 -10 4 -5 0 -10
-5 -10 -11z"/>
<path d="M1194 748 c-4 -7 -4 -10 1 -6 4 4 15 2 24 -5 14 -11 14 -10 2 6 -16
20 -18 21 -27 5z"/>
<path d="M803 725 c15 -15 27 -32 27 -36 0 -5 5 -9 10 -9 15 0 -20 49 -44 62
-16 9 -15 5 7 -17z"/>
<path d="M3798 743 c7 -3 16 -2 19 1 4 3 -2 6 -13 5 -11 0 -14 -3 -6 -6z"/>
<path d="M5207 735 c3 -8 9 -12 14 -9 12 7 11 11 -5 17 -10 4 -13 1 -9 -8z"/>
<path d="M3055 720 c-13 -6 -15 -9 -5 -9 8 0 22 4 30 9 18 12 2 12 -25 0z"/>
<path d="M4941 714 c0 -11 3 -14 6 -6 3 7 2 16 -1 19 -3 4 -6 -2 -5 -13z"/>
<path d="M5240 720 c0 -6 7 -10 15 -10 8 0 15 2 15 4 0 2 -7 6 -15 10 -8 3
-15 1 -15 -4z"/>
<path d="M1244 710 c3 -8 1 -22 -4 -30 -8 -12 -12 -13 -19 -2 -7 11 -9 11 -14
-1 -8 -21 33 -16 47 5 8 13 7 21 -2 30 -11 11 -12 10 -8 -2z"/>
<path d="M3306 705 c10 -8 24 -14 29 -14 6 0 1 6 -9 14 -11 8 -24 15 -30 15
-5 0 -1 -7 10 -15z"/>
<path d="M3633 713 c-7 -2 -13 -9 -13 -15 0 -7 4 -7 13 0 6 5 21 12 32 15 l20
5 -20 0 c-11 0 -26 -2 -32 -5z"/>
<path d="M3961 703 c18 -23 43 -42 48 -38 4 4 -49 55 -57 55 -2 0 2 -8 9 -17z"/>
<path d="M5280 706 c0 -4 12 -19 26 -34 20 -21 24 -22 16 -6 -11 22 -42 51
-42 40z"/>
<path d="M3595 679 c-4 -6 -5 -12 -2 -15 2 -3 7 2 10 11 7 17 1 20 -8 4z"/>
<path d="M1264 668 c-4 -7 -4 -10 1 -6 4 4 15 2 24 -5 14 -11 14 -10 2 6 -16
20 -18 21 -27 5z"/>
<path d="M2981 664 c0 -11 3 -14 6 -6 3 7 2 16 -1 19 -3 4 -6 -2 -5 -13z"/>
<path d="M3017 674 c7 -3 9 -13 6 -22 -4 -14 -3 -14 5 -2 12 16 7 30 -11 29
-9 0 -9 -2 0 -5z"/>
<path d="M3768 673 c7 -3 16 -2 19 1 4 3 -2 6 -13 5 -11 0 -14 -3 -6 -6z"/>
<path d="M3945 670 c3 -5 8 -10 11 -10 2 0 4 5 4 10 0 6 -5 10 -11 10 -5 0 -7
-4 -4 -10z"/>
<path d="M850 667 c0 -2 6 -10 14 -16 11 -9 16 -9 22 1 4 7 4 10 -1 6 -4 -4
-14 -3 -22 3 -7 6 -13 9 -13 6z"/>
<path d="M901 646 c-12 -15 -5 -46 11 -46 6 0 5 6 -2 15 -10 12 -10 18 0 30 7
8 10 15 7 15 -2 0 -10 -6 -16 -14z"/>
<path d="M3694 644 c-18 -14 -18 -15 4 -4 12 6 22 13 22 15 0 8 -5 6 -26 -11z"/>
<path d="M5170 656 c0 -2 7 -7 16 -10 8 -3 12 -2 9 4 -6 10 -25 14 -25 6z"/>
<path d="M929 633 c-13 -16 -12 -17 4 -4 16 13 21 21 13 21 -2 0 -10 -8 -17
-17z"/>
<path d="M3049 633 c-13 -15 -12 -15 9 -4 23 12 28 21 13 21 -5 0 -15 -7 -22
-17z"/>
<path d="M4011 634 c0 -11 3 -14 6 -6 3 7 2 16 -1 19 -3 4 -6 -2 -5 -13z"/>
<path d="M4974 631 c20 -22 26 -25 26 -13 0 4 -10 13 -22 21 -23 14 -23 14 -4
-8z"/>
<path d="M1313 622 c22 -24 21 -33 0 -25 -10 3 -15 3 -11 -1 3 -4 18 -9 32
-10 l25 -3 -22 28 c-12 15 -26 28 -31 28 -5 1 -2 -7 7 -17z"/>
<path d="M2944 629 c-3 -6 -1 -16 6 -22 10 -9 11 -9 5 2 -4 8 -2 17 6 22 9 6
10 9 2 9 -6 0 -15 -5 -19 -11z"/>
<path d="M3335 630 c-3 -5 -1 -10 4 -10 6 0 11 5 11 10 0 6 -2 10 -4 10 -3 0
-8 -4 -11 -10z"/>
<path d="M3566 624 c-5 -14 -4 -15 9 -4 17 14 19 20 6 20 -5 0 -12 -7 -15 -16z"/>
<path d="M3662 620 c0 -14 2 -19 5 -12 2 6 2 18 0 25 -3 6 -5 1 -5 -13z"/>
<path d="M5330 633 c0 -4 5 -15 10 -23 8 -13 10 -13 10 2 0 9 -4 20 -10 23 -5
3 -10 3 -10 -2z"/>
<path d="M3390 625 c0 -5 5 -17 10 -25 5 -8 10 -10 10 -5 0 6 -5 17 -10 25 -5
8 -10 11 -10 5z"/>
<path d="M3931 614 c0 -11 3 -14 6 -6 3 7 2 16 -1 19 -3 4 -6 -2 -5 -13z"/>
<path d="M4482 605 c0 -16 2 -22 5 -12 2 9 2 23 0 30 -3 6 -5 -1 -5 -18z"/>
<path d="M5243 615 c-9 -10 -9 -17 3 -31 14 -18 14 -18 8 0 -4 10 -2 21 6 26
6 4 8 10 4 13 -5 3 -14 -1 -21 -8z"/>
<path d="M2220 608 c0 -4 24 -7 53 -7 54 1 49 5 -15 11 -21 2 -38 0 -38 -4z"/>
<path d="M3300 617 c0 -14 31 -69 36 -64 3 3 -4 20 -15 38 -12 19 -21 30 -21
26z"/>
<path d="M3009 584 c-5 -15 -8 -29 -5 -31 2 -2 8 10 14 26 13 38 5 41 -9 5z"/>
<path d="M3366 597 c3 -10 9 -15 12 -12 3 3 0 11 -7 18 -10 9 -11 8 -5 -6z"/>
<path d="M4959 576 c-7 -20 -15 -36 -19 -36 -3 0 -3 -79 -2 -175 4 -178 0
-223 -18 -195 -8 13 -10 13 -10 -1 0 -23 27 -32 35 -11 3 9 5 95 4 192 -1 142
2 182 15 214 9 22 14 41 12 43 -2 3 -10 -12 -17 -31z"/>
<path d="M935 566 c10 -14 19 -26 22 -26 7 0 -17 39 -28 46 -6 3 -3 -5 6 -20z"/>
<path d="M3554 582 c4 -3 14 -7 22 -8 9 -1 13 0 10 4 -4 3 -14 7 -22 8 -9 1
-13 0 -10 -4z"/>
<path d="M3600 580 c0 -5 5 -10 11 -10 5 0 7 5 4 10 -3 6 -8 10 -11 10 -2 0
-4 -4 -4 -10z"/>
<path d="M1360 562 c0 -7 5 -12 11 -12 6 0 9 -7 6 -14 -4 -10 -1 -13 9 -9 7 3
14 1 14 -5 0 -6 -6 -12 -12 -15 -7 -3 -3 -4 9 -4 16 1 19 5 13 17 -13 23 -50
55 -50 42z"/>
<path d="M2905 540 c-4 -12 -5 -24 -2 -27 3 -2 8 5 12 17 4 12 5 24 2 27 -3 2
-8 -5 -12 -17z"/>
<path d="M970 538 c0 -9 5 -20 10 -23 13 -8 13 5 0 25 -8 13 -10 13 -10 -2z"/>
<path d="M2225 530 c-3 -5 -1 -10 4 -10 6 0 11 5 11 10 0 6 -2 10 -4 10 -3 0
-8 -4 -11 -10z"/>
<path d="M2990 529 c0 -5 5 -7 10 -4 6 3 10 8 10 11 0 2 -4 4 -10 4 -5 0 -10
-5 -10 -11z"/>
<path d="M3330 535 c0 -5 5 -17 10 -25 5 -8 10 -10 10 -5 0 6 -5 17 -10 25 -5
8 -10 11 -10 5z"/>
<path d="M4906 525 c-9 -26 -7 -32 5 -12 6 10 9 21 6 23 -2 3 -7 -2 -11 -11z"/>
<path d="M5255 346 c0 -168 2 -200 15 -204 12 -4 13 -2 3 10 -9 10 -13 73 -16
204 l-3 189 1 -199z"/>
<path d="M2916 505 c-3 -9 -6 -26 -5 -38 1 -14 4 -9 9 13 9 37 7 52 -4 25z"/>
<path d="M3930 503 c0 -10 4 -14 8 -8 4 6 11 13 16 18 5 4 2 7 -7 7 -10 0 -17
-8 -17 -17z"/>
<path d="M1000 506 c0 -2 7 -7 16 -10 8 -3 12 -2 9 4 -6 10 -25 14 -25 6z"/>
<path d="M3850 500 c-18 -12 -2 -12 25 0 13 6 15 9 5 9 -8 0 -22 -4 -30 -9z"/>
<path d="M3178 493 c7 -3 16 -2 19 1 4 3 -2 6 -13 5 -11 0 -14 -3 -6 -6z"/>
<path d="M3243 493 c9 -2 23 -2 30 0 6 3 -1 5 -18 5 -16 0 -22 -2 -12 -5z"/>
<path d="M1449 465 c15 -29 61 -82 61 -70 0 6 -16 28 -36 50 -19 22 -30 31
-25 20z"/>
<path d="M3660 468 c0 -10 49 -22 57 -14 4 3 -5 7 -18 7 -21 1 -21 2 6 9 29 8
29 8 -7 7 -21 -1 -38 -5 -38 -9z"/>
<path d="M2892 445 c0 -16 2 -22 5 -12 2 9 2 23 0 30 -3 6 -5 -1 -5 -18z"/>
<path d="M3890 450 c0 -5 7 -7 15 -4 8 4 15 8 15 10 0 2 -7 4 -15 4 -8 0 -15
-4 -15 -10z"/>
<path d="M1058 432 c8 -20 47 -72 54 -72 3 0 5 7 5 15 0 8 -3 13 -5 10 -9 -9
-42 28 -42 47 0 10 -4 18 -10 18 -5 0 -6 -8 -2 -18z"/>
<path d="M3930 446 c0 -2 7 -9 15 -16 13 -11 14 -10 9 4 -5 14 -24 23 -24 12z"/>
<path d="M3848 433 c7 -3 16 -2 19 1 4 3 -2 6 -13 5 -11 0 -14 -3 -6 -6z"/>
<path d="M2900 390 c0 -14 5 -32 10 -40 8 -12 10 -10 10 10 0 14 -5 32 -10 40
-8 12 -10 10 -10 -10z"/>
<path d="M3597 393 c-4 -3 -7 -13 -7 -22 1 -13 3 -13 11 2 11 19 8 33 -4 20z"/>
<path d="M3625 390 c-3 -5 -1 -10 4 -10 6 0 11 5 11 10 0 6 -2 10 -4 10 -3 0
-8 -4 -11 -10z"/>
<path d="M3650 390 c0 -5 5 -10 10 -10 6 0 10 5 10 10 0 6 -4 10 -10 10 -5 0
-10 -4 -10 -10z"/>
<path d="M1536 351 c-3 -5 1 -11 9 -14 9 -4 12 -1 8 9 -6 16 -10 17 -17 5z"/>
<path d="M3986 345 c-3 -9 -6 -22 -5 -28 0 -7 5 -1 10 12 5 13 8 26 5 28 -2 2
-6 -3 -10 -12z"/>
<path d="M3537 343 c-4 -3 -7 -11 -7 -17 0 -6 5 -5 12 2 6 6 9 14 7 17 -3 3
-9 2 -12 -2z"/>
<path d="M1140 329 c0 -5 5 -7 10 -4 6 3 10 8 10 11 0 2 -4 4 -10 4 -5 0 -10
-5 -10 -11z"/>
<path d="M2660 256 c-3 -48 -2 -93 1 -98 9 -14 99 -21 99 -8 0 5 -20 10 -45
10 l-44 0 -3 93 -3 92 -5 -89z"/>
<path d="M1185 310 c-3 -5 -13 -6 -23 -3 -16 6 -16 6 0 -10 21 -22 25 -21 31
3 5 21 2 26 -8 10z"/>
<path d="M2926 305 c-9 -26 -7 -32 5 -12 6 10 9 21 6 23 -2 3 -7 -2 -11 -11z"/>
<path d="M3010 311 c0 -5 5 -13 10 -16 6 -3 10 -2 10 4 0 5 -4 13 -10 16 -5 3
-10 2 -10 -4z"/>
<path d="M3340 310 c0 -5 5 -10 11 -10 5 0 7 5 4 10 -3 6 -8 10 -11 10 -2 0
-4 -4 -4 -10z"/>
<path d="M3917 287 l-18 -32 21 21 c13 12 21 27 19 33 -2 6 -12 -4 -22 -22z"/>
<path d="M3307 285 c-18 -25 -5 -47 16 -26 6 6 7 11 2 11 -6 0 -5 4 2 8 7 4 9
13 5 19 -5 7 -13 3 -25 -12z"/>
<path d="M1580 285 c-8 -10 -9 -15 -1 -15 6 0 11 5 11 12 0 6 6 3 14 -8 8 -10
16 -17 19 -14 2 3 -3 13 -13 23 -15 16 -19 16 -30 2z"/>
<path d="M3547 293 c-4 -3 -7 -11 -7 -17 0 -6 5 -5 12 2 6 6 9 14 7 17 -3 3
-9 2 -12 -2z"/>
<path d="M3571 284 c0 -11 3 -14 6 -6 3 7 2 16 -1 19 -3 4 -6 -2 -5 -13z"/>
<path d="M2942 270 c0 -14 2 -19 5 -12 2 6 2 18 0 25 -3 6 -5 1 -5 -13z"/>
<path d="M3350 255 c8 -11 15 -21 16 -23 1 -2 5 5 8 15 4 9 4 14 0 10 -4 -4
-14 -1 -23 6 -14 11 -15 10 -1 -8z"/>
<path d="M3382 232 l-23 -37 25 28 c14 15 26 32 26 38 0 15 -4 11 -28 -29z"/>
<path d="M3547 240 c3 -11 9 -22 13 -25 5 -3 6 4 3 15 -3 11 -9 22 -13 25 -5
3 -6 -4 -3 -15z"/>
<path d="M4542 235 c0 -16 2 -22 5 -12 2 9 2 23 0 30 -3 6 -5 -1 -5 -18z"/>
<path d="M3020 235 c9 -11 9 -15 1 -15 -7 0 -9 -5 -5 -11 5 -8 10 -6 16 5 10
18 3 36 -14 36 -7 0 -6 -6 2 -15z"/>
<path d="M3263 243 c-17 -6 -17 -20 0 -26 8 -3 13 3 13 14 0 11 0 19 -1 18 0
0 -6 -3 -12 -6z"/>
<path d="M3620 241 c0 -6 5 -13 10 -16 6 -3 10 1 10 9 0 9 -4 16 -10 16 -5 0
-10 -4 -10 -9z"/>
<path d="M3073 233 c9 -14 47 -24 47 -12 0 5 -4 9 -9 9 -5 0 -17 3 -27 7 -11
4 -15 3 -11 -4z"/>
<path d="M3597 233 c-4 -3 -7 -11 -7 -17 0 -6 5 -5 12 2 6 6 9 14 7 17 -3 3
-9 2 -12 -2z"/>
<path d="M3660 236 c0 -2 7 -7 16 -10 8 -3 12 -2 9 4 -6 10 -25 14 -25 6z"/>
<path d="M3840 224 l-25 -15 25 7 c14 3 32 10 40 15 13 7 13 8 0 8 -8 0 -26
-6 -40 -15z"/>
<path d="M4608 228 c5 -5 16 -8 23 -6 8 3 3 7 -10 11 -17 4 -21 3 -13 -5z"/>
<path d="M1220 226 c0 -2 8 -10 18 -17 15 -13 16 -12 3 4 -13 16 -21 21 -21
13z"/>
<path d="M2987 223 c-10 -9 -9 -23 1 -23 5 0 9 7 9 15 0 17 -1 18 -10 8z"/>
<path d="M4710 220 c0 -5 5 -10 10 -10 6 0 10 5 10 10 0 6 -4 10 -10 10 -5 0
-10 -4 -10 -10z"/>
<path d="M4665 210 c3 -5 12 -7 20 -3 21 7 19 13 -6 13 -11 0 -18 -4 -14 -10z"/>
<path d="M3179 203 c20 -4 22 -7 10 -15 -10 -7 -10 -9 -1 -6 22 6 14 23 -10
24 -21 1 -21 1 1 -3z"/>
<path d="M3700 190 c-18 -12 -2 -12 25 0 13 6 15 9 5 9 -8 0 -22 -4 -30 -9z"/>
<path d="M3886 183 c-6 -14 -5 -15 5 -6 7 7 10 15 7 18 -3 3 -9 -2 -12 -12z"/>
<path d="M1683 169 c-1 -12 1 -19 4 -15 3 3 12 1 20 -5 19 -17 16 -1 -5 21
-18 19 -18 19 -19 -1z"/>
<path d="M4241 178 c0 -9 -7 -18 -13 -21 -7 -2 -10 -8 -5 -12 11 -13 29 11 24
31 -4 16 -5 16 -6 2z"/>
<path d="M1265 170 c3 -5 8 -10 11 -10 2 0 4 5 4 10 0 6 -5 10 -11 10 -5 0 -7
-4 -4 -10z"/>
<path d="M2163 165 c-9 -10 -9 -16 -2 -20 14 -9 22 0 17 18 -2 13 -5 13 -15 2z"/>
<path d="M3028 173 c7 -3 16 -2 19 1 4 3 -2 6 -13 5 -11 0 -14 -3 -6 -6z"/>
<path d="M3075 171 c-19 -8 -19 -8 2 -19 26 -14 44 -16 23 -2 -13 9 -13 11 0
20 18 11 4 12 -25 1z"/>
<path d="M3303 170 c-13 -5 -23 -11 -23 -14 0 -7 40 6 46 15 6 10 6 10 -23 -1z"/>
<path d="M3619 166 c13 -15 64 -29 55 -15 -3 5 -14 9 -25 9 -10 0 -19 5 -19
10 0 6 -5 10 -11 10 -8 0 -8 -4 0 -14z"/>
<path d="M4190 171 c0 -6 4 -12 8 -15 5 -3 9 1 9 9 0 8 -4 15 -9 15 -4 0 -8
-4 -8 -9z"/>
<path d="M4524 165 c11 -8 24 -15 30 -15 5 0 1 7 -10 15 -10 8 -23 14 -29 14
-5 0 -1 -6 9 -14z"/>
<path d="M4710 170 c-13 -9 -13 -10 0 -11 8 -1 2 -5 -15 -9 l-30 -9 29 2 c19
1 30 8 32 20 3 20 3 20 -16 7z"/>
<path d="M2200 160 c-13 -8 -12 -10 3 -10 9 0 17 5 17 10 0 12 -1 12 -20 0z"/>
<path d="M4850 154 c0 -8 5 -12 10 -9 6 4 8 11 5 16 -9 14 -15 11 -15 -7z"/>
<path d="M1308 153 c7 -3 16 -2 19 1 4 3 -2 6 -13 5 -11 0 -14 -3 -6 -6z"/>
<path d="M1638 153 c7 -3 16 -2 19 1 4 3 -2 6 -13 5 -11 0 -14 -3 -6 -6z"/>
<path d="M3725 150 c-37 -7 -38 -7 -8 -9 17 0 40 -4 50 -7 15 -5 16 -4 3 6
-13 10 -12 11 6 7 12 -2 28 -1 35 4 17 10 -26 10 -86 -1z"/>
<path d="M3995 150 c4 -6 11 -8 16 -5 14 9 11 15 -7 15 -8 0 -12 -5 -9 -10z"/>
<path d="M4030 150 c0 -5 5 -10 10 -10 6 0 10 5 10 10 0 6 -4 10 -10 10 -5 0
-10 -4 -10 -10z"/>
<path d="M4638 153 c7 -3 16 -2 19 1 4 3 -2 6 -13 5 -11 0 -14 -3 -6 -6z"/>
<path d="M4578 143 c6 -2 18 -2 25 0 6 3 1 5 -13 5 -14 0 -19 -2 -12 -5z"/>
</g>
</svg>
