<?xml version="1.0" standalone="no"?>
<!DOCTYPE svg PUBLIC "-//W3C//DTD SVG 20010904//EN"
 "http://www.w3.org/TR/2001/REC-SVG-20010904/DTD/svg10.dtd">
<svg version="1.0" xmlns="http://www.w3.org/2000/svg"
 width="284.000000pt" height="110.000000pt" viewBox="0 0 284.000000 110.000000"
 preserveAspectRatio="xMidYMid meet">

<g transform="translate(0.000000,110.000000) scale(0.100000,-0.100000)"
fill="#000000" stroke="none">
<path d="M230 1051 c-111 -45 -177 -144 -189 -280 -19 -226 94 -377 291 -389
172 -10 292 77 334 241 47 181 -42 380 -193 431 -64 22 -185 20 -243 -3z m208
-73 c18 -5 46 -21 63 -35 107 -90 111 -333 7 -430 -56 -52 -166 -71 -239 -40
-44 18 -91 64 -115 114 -15 30 -19 60 -19 138 0 87 3 107 25 150 51 101 156
140 278 103z"/>
<path d="M885 726 l0 -336 45 0 45 0 -2 134 -3 134 138 4 c165 4 214 21 259
89 24 37 28 52 28 114 0 61 -4 78 -27 112 -46 69 -75 78 -293 81 l-190 3 0
-335z m355 243 c62 -22 84 -135 36 -188 -25 -27 -92 -41 -199 -41 -80 0 -96 3
-101 17 -4 9 -6 63 -5 120 l1 103 118 0 c64 0 132 -5 150 -11z"/>
<path d="M1550 1020 l0 -40 109 0 c94 0 110 -2 116 -17 3 -10 6 -137 5 -283
-1 -146 -1 -271 -1 -277 1 -8 17 -13 44 -13 l42 0 -3 252 c-2 139 -1 272 3
296 l6 42 110 0 109 0 0 40 0 40 -270 0 -270 0 0 -40z"/>
<path d="M2262 743 c-67 -175 -124 -326 -128 -335 -5 -16 0 -18 43 -18 l49 0
34 100 35 100 141 0 141 0 38 -100 37 -100 53 0 53 0 -75 183 c-41 100 -102
251 -136 334 l-62 153 -51 0 -50 0 -122 -317z m278 -65 c0 -4 -47 -8 -105 -8
-58 0 -105 3 -105 8 0 4 14 43 30 87 17 43 40 108 52 143 l21 65 53 -144 c30
-79 54 -147 54 -151z"/>
<path d="M20 273 c0 -5 630 -8 1400 -8 770 0 1400 3 1400 8 0 4 -630 7 -1400
7 -770 0 -1400 -3 -1400 -7z"/>
<path d="M95 205 c-33 -32 -34 -83 -2 -113 74 -69 174 42 102 113 -31 32 -69
32 -100 0z m80 -9 c21 -15 23 -69 4 -92 -17 -21 -56 -17 -73 8 -20 28 -20 48
0 76 17 25 42 28 69 8z"/>
<path d="M360 150 c0 -47 4 -80 10 -80 6 0 10 33 10 80 0 47 -4 80 -10 80 -6
0 -10 -33 -10 -80z"/>
<path d="M410 215 c0 -8 5 -15 10 -15 6 0 10 7 10 15 0 8 -4 15 -10 15 -5 0
-10 -7 -10 -15z"/>
<path d="M750 150 c0 -44 4 -80 9 -80 5 0 11 12 13 27 3 22 10 28 48 37 39 10
45 15 48 41 5 38 -19 55 -75 55 l-43 0 0 -80z m90 45 c15 -19 6 -31 -31 -40
-20 -5 -27 -2 -31 12 -3 10 -3 24 -1 31 6 17 48 15 63 -3z"/>
<path d="M1605 220 c-4 -6 7 -10 24 -10 l31 0 0 -70 c0 -40 4 -70 10 -70 6 0
10 30 10 70 0 68 1 70 25 70 14 0 25 5 25 10 0 6 -26 10 -59 10 -33 0 -63 -4
-66 -10z"/>
<path d="M2035 213 c-45 -112 -54 -143 -41 -143 8 0 17 11 20 25 9 36 62 36
78 0 6 -14 17 -25 24 -25 9 0 3 24 -19 77 -33 79 -49 97 -62 66z m32 -69 c-3
-3 -12 -4 -20 -2 -11 2 -12 9 -5 28 l10 25 11 -23 c5 -12 8 -25 4 -28z"/>
<path d="M2380 150 c0 -47 4 -80 10 -80 6 0 10 33 10 80 0 47 -4 80 -10 80 -6
0 -10 -33 -10 -80z"/>
<path d="M2640 215 c0 -8 5 -15 10 -15 6 0 10 7 10 15 0 8 -4 15 -10 15 -5 0
-10 -7 -10 -15z"/>
<path d="M1398 203 c-2 -12 -13 -17 -38 -17 l-35 -1 -3 -57 c-2 -36 1 -58 8
-58 5 0 10 15 10 33 0 40 12 60 39 64 19 3 21 -2 21 -47 0 -43 3 -50 20 -50
11 0 20 5 20 10 0 6 -4 10 -10 10 -5 0 -10 18 -10 40 0 56 24 52 44 -7 20 -58
20 -73 1 -73 -8 0 -15 -4 -15 -10 0 -5 9 -10 19 -10 15 0 26 17 45 68 29 74
30 82 17 82 -5 0 -15 -17 -22 -37 l-13 -38 -14 38 c-10 25 -21 37 -34 37 -11
0 -22 9 -25 20 -6 24 -20 26 -25 3z"/>
<path d="M240 128 c0 -32 4 -58 10 -58 6 0 10 20 10 44 0 31 5 46 16 50 26 10
34 -2 34 -50 0 -24 5 -44 10 -44 15 0 12 97 -2 107 -7 4 -28 8 -45 8 l-33 0 0
-57z"/>
<path d="M473 183 c-21 -4 -23 -10 -23 -60 0 -39 4 -53 12 -51 7 3 13 20 13
39 1 40 11 59 30 59 17 0 23 -17 20 -62 -1 -26 3 -38 12 -38 17 0 9 100 -9
111 -14 9 -18 9 -55 2z"/>
<path d="M586 177 c-21 -15 -24 -70 -6 -92 16 -19 64 -19 80 0 17 21 7 29 -18
14 -21 -13 -52 -7 -52 11 0 5 18 10 40 10 32 0 40 4 40 18 0 22 -30 52 -51 52
-9 0 -23 -6 -33 -13z m54 -22 c11 -13 8 -15 -19 -15 -30 0 -39 9 -24 23 11 11
30 8 43 -8z"/>
<path d="M894 181 c-2 -2 -4 -28 -4 -58 0 -40 4 -53 15 -53 11 0 14 9 12 33
-4 36 9 71 24 62 5 -4 9 0 9 8 0 14 -44 19 -56 8z"/>
<path d="M982 174 c-25 -17 -31 -71 -10 -92 15 -15 61 -15 76 0 20 20 15 86
-7 98 -26 13 -33 13 -59 -6z m53 -44 c0 -31 -3 -35 -25 -35 -29 0 -40 36 -19
61 21 26 44 12 44 -26z"/>
<path d="M1105 181 c-18 -8 -21 -18 -20 -77 0 -43 4 -69 12 -71 8 -3 11 3 8
16 -3 17 1 21 24 21 15 0 32 5 39 12 17 17 15 74 -4 92 -17 18 -29 19 -59 7z
m50 -51 c0 -28 -4 -36 -22 -38 -26 -4 -39 28 -23 58 18 33 45 21 45 -20z"/>
<path d="M1216 174 c-19 -18 -21 -75 -4 -92 17 -17 63 -15 78 3 17 21 7 29
-18 14 -21 -13 -52 -7 -52 11 0 5 18 10 40 10 32 0 40 4 40 18 0 22 -30 52
-53 52 -8 0 -23 -7 -31 -16z m58 -19 c4 -11 -2 -15 -24 -15 -29 0 -38 9 -23
23 12 12 41 7 47 -8z"/>
<path d="M1734 176 c-10 -8 -16 -18 -12 -22 4 -4 14 -1 23 6 16 13 45 7 45
-10 0 -5 -11 -10 -24 -10 -28 0 -49 -22 -44 -47 3 -14 13 -18 49 -19 l47 -1
-3 50 c-4 65 -36 86 -81 53z m54 -68 c-5 -15 -48 -24 -48 -10 0 14 12 22 33
22 10 0 17 -5 15 -12z"/>
<path d="M1902 172 c-18 -18 -21 -18 -36 -4 -8 9 -19 13 -23 9 -4 -4 1 -15 10
-24 15 -16 15 -19 -4 -50 -15 -24 -17 -33 -7 -33 7 0 19 9 26 21 13 20 13 20
32 -3 25 -32 35 -18 13 20 -17 29 -17 31 1 51 25 27 14 39 -12 13z"/>
<path d="M2140 128 c0 -70 18 -78 22 -10 3 39 6 47 23 47 17 0 20 -8 23 -47 4
-63 22 -62 22 1 0 55 -9 66 -57 66 l-33 0 0 -57z"/>
<path d="M2274 176 c-10 -8 -16 -18 -12 -22 4 -4 14 -1 23 6 16 13 45 7 45
-10 0 -5 -10 -10 -23 -10 -13 0 -32 -6 -43 -14 -30 -23 -7 -51 45 -52 l41 -2
0 49 c0 38 -4 51 -19 59 -26 13 -33 13 -57 -4z m54 -68 c-7 -20 -48 -23 -48
-4 0 11 9 16 26 16 16 0 24 -5 22 -12z"/>
<path d="M2543 183 c-7 -2 -13 -15 -13 -28 0 -18 8 -26 35 -35 19 -6 33 -16
30 -21 -9 -13 -43 -11 -48 4 -2 6 -8 9 -12 5 -15 -14 5 -38 33 -38 58 0 70 44
17 66 -38 16 -46 34 -15 34 11 0 20 -4 20 -10 0 -5 5 -10 10 -10 16 0 11 27
-6 34 -18 7 -33 7 -51 -1z"/>
<path d="M2647 183 c-11 -10 -8 -113 3 -113 6 0 10 27 10 60 0 61 -1 65 -13
53z"/>
<path d="M2694 176 c-15 -12 -17 -18 -8 -33 6 -10 21 -20 34 -23 13 -3 25 -11
28 -18 5 -15 -30 -16 -46 0 -17 17 -28 2 -12 -17 25 -30 80 -15 80 21 0 19 -7
26 -30 31 -17 3 -33 10 -36 14 -9 15 25 22 41 9 9 -7 19 -10 23 -6 8 8 -25 36
-43 36 -6 0 -20 -6 -31 -14z"/>
<path d="M404 128 c2 -74 26 -78 26 -4 0 40 -4 56 -13 56 -10 0 -13 -15 -13
-52z"/>
<path d="M2420 171 c0 -5 7 -25 15 -44 8 -20 15 -46 15 -57 0 -11 -7 -20 -15
-20 -8 0 -15 -4 -15 -10 0 -5 8 -10 19 -10 18 0 50 59 66 123 11 40 -9 33 -25
-10 l-14 -38 -14 38 c-13 33 -32 50 -32 28z"/>
</g>
</svg>
